# xmcd
#
# Track frame offsets: 
#        150
#        24299
#        46348
#        63897
#        84807
#        103931
#        128080
#        150504
#        171878
#        193025
#        213791
#        235540
#
# Disc length: 3370 seconds
#
# Revision: 0
# Processed by: cddbd v1.5.2PL0 Copyright (c) Steve Scherf et al.
# Submitted via: ExactAudioCopyFreeDBPlugin 1.0
#
DISCID=890d280c
DTITLE=Kasim Hoang Vu - Doi lang thang rat buon
DYEAR=1900
DGENRE=
TTITLE0=Doi lang thang rat buon
TTITLE1=Khong co em toi la ai
TTITLE2=Cau chuyen tinh buon
TTITLE3=Mot lan lam lo
TTITLE4=Yeu nguoi da xa
TTITLE5=Khoc trong dem
TTITLE6=Hanh phuc lang thang
TTITLE7=Nho em hon luc nao
TTITLE8=Xin mot cau gia tu
TTITLE9=Tinh phu
TTITLE10=Trai tim hoand duong
TTITLE11=Nguoi hung
EXTD=
EXTT0=
EXTT1=
EXTT2=
EXTT3=
EXTT4=
EXTT5=
EXTT6=
EXTT7=
EXTT8=
EXTT9=
EXTT10=
EXTT11=
PLAYORDER=
